<svg xmlns="http://www.w3.org/2000/svg" viewBox="0 0 1760 1130" width="1760" height="1130" font-family="Segoe UI, Helvetica, Arial, sans-serif">
<rect x="0.0" y="0.0" width="1760.0" height="1130.0" rx="0" fill="#f4efe6"/>
<rect x="0.0" y="0.0" width="760.0" height="92.0" rx="0" fill="#1b1815"/>
<text x="36.0" y="62.0" font-family="Segoe UI, Helvetica, Arial, sans-serif" font-size="42" fill="#ffffff" text-anchor="start" font-weight="700">Custom Scene Creator</text>
<text x="786.0" y="42.0" font-family="Segoe UI, Helvetica, Arial, sans-serif" font-size="19" fill="#1b1815" text-anchor="start" font-weight="600">Bannerlord v1.4.7  ·  keyboard and mouse</text>
<text x="786.0" y="70.0" font-family="Segoe UI, Helvetica, Arial, sans-serif" font-size="15" fill="#7a7166" text-anchor="start" font-weight="normal">Every key rebindable in MCM (optional). Key names are US-layout positions.</text>
<rect x="60.0" y="470.0" width="62.0" height="62.0" rx="7" fill="#1f6f8b" stroke="#1f6f8b" stroke-width="1.6"/>
<text x="91.0" y="506.0" font-family="Segoe UI, Helvetica, Arial, sans-serif" font-size="15" fill="#ffffff" text-anchor="middle" font-weight="700">`~</text>
<rect x="127.0" y="470.0" width="62.0" height="62.0" rx="7" fill="#ffffff" stroke="#8b8378" stroke-width="1.6"/>
<text x="158.0" y="506.0" font-family="Segoe UI, Helvetica, Arial, sans-serif" font-size="15" fill="#3a352e" text-anchor="middle" font-weight="500">1</text>
<rect x="194.0" y="470.0" width="62.0" height="62.0" rx="7" fill="#ffffff" stroke="#8b8378" stroke-width="1.6"/>
<text x="225.0" y="506.0" font-family="Segoe UI, Helvetica, Arial, sans-serif" font-size="15" fill="#3a352e" text-anchor="middle" font-weight="500">2</text>
<rect x="261.0" y="470.0" width="62.0" height="62.0" rx="7" fill="#ffffff" stroke="#8b8378" stroke-width="1.6"/>
<text x="292.0" y="506.0" font-family="Segoe UI, Helvetica, Arial, sans-serif" font-size="15" fill="#3a352e" text-anchor="middle" font-weight="500">3</text>
<rect x="328.0" y="470.0" width="62.0" height="62.0" rx="7" fill="#ffffff" stroke="#8b8378" stroke-width="1.6"/>
<text x="359.0" y="506.0" font-family="Segoe UI, Helvetica, Arial, sans-serif" font-size="15" fill="#3a352e" text-anchor="middle" font-weight="500">4</text>
<rect x="395.0" y="470.0" width="62.0" height="62.0" rx="7" fill="#ffffff" stroke="#8b8378" stroke-width="1.6"/>
<text x="426.0" y="506.0" font-family="Segoe UI, Helvetica, Arial, sans-serif" font-size="15" fill="#3a352e" text-anchor="middle" font-weight="500">5</text>
<rect x="462.0" y="470.0" width="62.0" height="62.0" rx="7" fill="#ffffff" stroke="#8b8378" stroke-width="1.6"/>
<text x="493.0" y="506.0" font-family="Segoe UI, Helvetica, Arial, sans-serif" font-size="15" fill="#3a352e" text-anchor="middle" font-weight="500">6</text>
<rect x="529.0" y="470.0" width="62.0" height="62.0" rx="7" fill="#ffffff" stroke="#8b8378" stroke-width="1.6"/>
<text x="560.0" y="506.0" font-family="Segoe UI, Helvetica, Arial, sans-serif" font-size="15" fill="#3a352e" text-anchor="middle" font-weight="500">7</text>
<rect x="596.0" y="470.0" width="62.0" height="62.0" rx="7" fill="#ffffff" stroke="#8b8378" stroke-width="1.6"/>
<text x="627.0" y="506.0" font-family="Segoe UI, Helvetica, Arial, sans-serif" font-size="15" fill="#3a352e" text-anchor="middle" font-weight="500">8</text>
<rect x="663.0" y="470.0" width="62.0" height="62.0" rx="7" fill="#ffffff" stroke="#8b8378" stroke-width="1.6"/>
<text x="694.0" y="506.0" font-family="Segoe UI, Helvetica, Arial, sans-serif" font-size="15" fill="#3a352e" text-anchor="middle" font-weight="500">9</text>
<rect x="730.0" y="470.0" width="62.0" height="62.0" rx="7" fill="#ffffff" stroke="#8b8378" stroke-width="1.6"/>
<text x="761.0" y="506.0" font-family="Segoe UI, Helvetica, Arial, sans-serif" font-size="15" fill="#3a352e" text-anchor="middle" font-weight="500">0</text>
<rect x="797.0" y="470.0" width="62.0" height="62.0" rx="7" fill="#ffffff" stroke="#8b8378" stroke-width="1.6"/>
<text x="828.0" y="506.0" font-family="Segoe UI, Helvetica, Arial, sans-serif" font-size="15" fill="#3a352e" text-anchor="middle" font-weight="500">-</text>
<rect x="864.0" y="470.0" width="62.0" height="62.0" rx="7" fill="#ffffff" stroke="#8b8378" stroke-width="1.6"/>
<text x="895.0" y="506.0" font-family="Segoe UI, Helvetica, Arial, sans-serif" font-size="15" fill="#3a352e" text-anchor="middle" font-weight="500">=</text>
<rect x="931.0" y="470.0" width="129.0" height="62.0" rx="7" fill="#ffffff" stroke="#8b8378" stroke-width="1.6"/>
<text x="995.5" y="506.0" font-family="Segoe UI, Helvetica, Arial, sans-serif" font-size="13" fill="#3a352e" text-anchor="middle" font-weight="500">Backspace</text>
<rect x="60.0" y="537.0" width="95.5" height="62.0" rx="7" fill="#5a6472" stroke="#5a6472" stroke-width="1.6"/>
<text x="107.8" y="573.0" font-family="Segoe UI, Helvetica, Arial, sans-serif" font-size="13" fill="#ffffff" text-anchor="middle" font-weight="700">Tab</text>
<rect x="160.5" y="537.0" width="62.0" height="62.0" rx="7" fill="#d2691e" stroke="#d2691e" stroke-width="1.6"/>
<text x="191.5" y="573.0" font-family="Segoe UI, Helvetica, Arial, sans-serif" font-size="15" fill="#ffffff" text-anchor="middle" font-weight="700">Q</text>
<rect x="227.5" y="537.0" width="62.0" height="62.0" rx="7" fill="#5a6472" stroke="#5a6472" stroke-width="1.6"/>
<text x="258.5" y="573.0" font-family="Segoe UI, Helvetica, Arial, sans-serif" font-size="15" fill="#ffffff" text-anchor="middle" font-weight="700">W</text>
<rect x="294.5" y="537.0" width="62.0" height="62.0" rx="7" fill="#d2691e" stroke="#d2691e" stroke-width="1.6"/>
<text x="325.5" y="573.0" font-family="Segoe UI, Helvetica, Arial, sans-serif" font-size="15" fill="#ffffff" text-anchor="middle" font-weight="700">E</text>
<rect x="361.5" y="537.0" width="62.0" height="62.0" rx="7" fill="#ffffff" stroke="#8b8378" stroke-width="1.6"/>
<text x="392.5" y="573.0" font-family="Segoe UI, Helvetica, Arial, sans-serif" font-size="15" fill="#3a352e" text-anchor="middle" font-weight="500">R</text>
<rect x="428.5" y="537.0" width="62.0" height="62.0" rx="7" fill="#ffffff" stroke="#8b8378" stroke-width="1.6"/>
<text x="459.5" y="573.0" font-family="Segoe UI, Helvetica, Arial, sans-serif" font-size="15" fill="#3a352e" text-anchor="middle" font-weight="500">T</text>
<rect x="495.5" y="537.0" width="62.0" height="62.0" rx="7" fill="#ffffff" stroke="#8b8378" stroke-width="1.6"/>
<text x="526.5" y="573.0" font-family="Segoe UI, Helvetica, Arial, sans-serif" font-size="15" fill="#3a352e" text-anchor="middle" font-weight="500">Y</text>
<rect x="562.5" y="537.0" width="62.0" height="62.0" rx="7" fill="#ffffff" stroke="#8b8378" stroke-width="1.6"/>
<text x="593.5" y="573.0" font-family="Segoe UI, Helvetica, Arial, sans-serif" font-size="15" fill="#3a352e" text-anchor="middle" font-weight="500">U</text>
<rect x="629.5" y="537.0" width="62.0" height="62.0" rx="7" fill="#ffffff" stroke="#8b8378" stroke-width="1.6"/>
<text x="660.5" y="573.0" font-family="Segoe UI, Helvetica, Arial, sans-serif" font-size="15" fill="#3a352e" text-anchor="middle" font-weight="500">I</text>
<rect x="696.5" y="537.0" width="62.0" height="62.0" rx="7" fill="#ffffff" stroke="#8b8378" stroke-width="1.6"/>
<text x="727.5" y="573.0" font-family="Segoe UI, Helvetica, Arial, sans-serif" font-size="15" fill="#3a352e" text-anchor="middle" font-weight="500">O</text>
<rect x="763.5" y="537.0" width="62.0" height="62.0" rx="7" fill="#ffffff" stroke="#8b8378" stroke-width="1.6"/>
<text x="794.5" y="573.0" font-family="Segoe UI, Helvetica, Arial, sans-serif" font-size="15" fill="#3a352e" text-anchor="middle" font-weight="500">P</text>
<rect x="830.5" y="537.0" width="62.0" height="62.0" rx="7" fill="#1f6f8b" stroke="#1f6f8b" stroke-width="1.6"/>
<text x="861.5" y="573.0" font-family="Segoe UI, Helvetica, Arial, sans-serif" font-size="15" fill="#ffffff" text-anchor="middle" font-weight="700">[</text>
<rect x="897.5" y="537.0" width="62.0" height="62.0" rx="7" fill="#1f6f8b" stroke="#1f6f8b" stroke-width="1.6"/>
<text x="928.5" y="573.0" font-family="Segoe UI, Helvetica, Arial, sans-serif" font-size="15" fill="#ffffff" text-anchor="middle" font-weight="700">]</text>
<rect x="964.5" y="537.0" width="95.5" height="62.0" rx="7" fill="#7b3fa0" stroke="#7b3fa0" stroke-width="1.6"/>
<text x="1012.2" y="573.0" font-family="Segoe UI, Helvetica, Arial, sans-serif" font-size="15" fill="#ffffff" text-anchor="middle" font-weight="700">\</text>
<rect x="60.0" y="604.0" width="112.2" height="62.0" rx="7" fill="#ffffff" stroke="#8b8378" stroke-width="1.6"/>
<text x="116.1" y="640.0" font-family="Segoe UI, Helvetica, Arial, sans-serif" font-size="13" fill="#3a352e" text-anchor="middle" font-weight="500">Caps</text>
<rect x="177.2" y="604.0" width="62.0" height="62.0" rx="7" fill="#5a6472" stroke="#5a6472" stroke-width="1.6"/>
<text x="208.2" y="640.0" font-family="Segoe UI, Helvetica, Arial, sans-serif" font-size="15" fill="#ffffff" text-anchor="middle" font-weight="700">A</text>
<rect x="244.2" y="604.0" width="62.0" height="62.0" rx="7" fill="#5a6472" stroke="#5a6472" stroke-width="1.6"/>
<text x="275.2" y="640.0" font-family="Segoe UI, Helvetica, Arial, sans-serif" font-size="15" fill="#ffffff" text-anchor="middle" font-weight="700">S</text>
<rect x="311.2" y="604.0" width="62.0" height="62.0" rx="7" fill="#5a6472" stroke="#5a6472" stroke-width="1.6"/>
<text x="342.2" y="640.0" font-family="Segoe UI, Helvetica, Arial, sans-serif" font-size="15" fill="#ffffff" text-anchor="middle" font-weight="700">D</text>
<rect x="378.2" y="604.0" width="62.0" height="62.0" rx="7" fill="#2e7d4f" stroke="#2e7d4f" stroke-width="1.6"/>
<text x="409.2" y="640.0" font-family="Segoe UI, Helvetica, Arial, sans-serif" font-size="15" fill="#ffffff" text-anchor="middle" font-weight="700">F</text>
<rect x="445.2" y="604.0" width="62.0" height="62.0" rx="7" fill="#d2691e" stroke="#d2691e" stroke-width="1.6"/>
<text x="476.2" y="640.0" font-family="Segoe UI, Helvetica, Arial, sans-serif" font-size="15" fill="#ffffff" text-anchor="middle" font-weight="700">G</text>
<rect x="512.2" y="604.0" width="62.0" height="62.0" rx="7" fill="#d2691e" stroke="#d2691e" stroke-width="1.6"/>
<text x="543.2" y="640.0" font-family="Segoe UI, Helvetica, Arial, sans-serif" font-size="15" fill="#ffffff" text-anchor="middle" font-weight="700">H</text>
<rect x="579.2" y="604.0" width="62.0" height="62.0" rx="7" fill="#ffffff" stroke="#8b8378" stroke-width="1.6"/>
<text x="610.2" y="640.0" font-family="Segoe UI, Helvetica, Arial, sans-serif" font-size="15" fill="#3a352e" text-anchor="middle" font-weight="500">J</text>
<rect x="646.2" y="604.0" width="62.0" height="62.0" rx="7" fill="#b8860b" stroke="#b8860b" stroke-width="1.6"/>
<text x="677.2" y="640.0" font-family="Segoe UI, Helvetica, Arial, sans-serif" font-size="15" fill="#ffffff" text-anchor="middle" font-weight="700">K</text>
<rect x="713.2" y="604.0" width="62.0" height="62.0" rx="7" fill="#7b3fa0" stroke="#7b3fa0" stroke-width="1.6"/>
<text x="744.2" y="640.0" font-family="Segoe UI, Helvetica, Arial, sans-serif" font-size="15" fill="#ffffff" text-anchor="middle" font-weight="700">L</text>
<rect x="780.2" y="604.0" width="62.0" height="62.0" rx="7" fill="#ffffff" stroke="#8b8378" stroke-width="1.6"/>
<text x="811.2" y="640.0" font-family="Segoe UI, Helvetica, Arial, sans-serif" font-size="15" fill="#3a352e" text-anchor="middle" font-weight="500">;</text>
<rect x="847.2" y="604.0" width="62.0" height="62.0" rx="7" fill="#1f6f8b" stroke="#1f6f8b" stroke-width="1.6"/>
<text x="878.2" y="640.0" font-family="Segoe UI, Helvetica, Arial, sans-serif" font-size="15" fill="#ffffff" text-anchor="middle" font-weight="700">'</text>
<rect x="914.2" y="604.0" width="145.8" height="62.0" rx="7" fill="#ffffff" stroke="#8b8378" stroke-width="1.6"/>
<text x="987.1" y="640.0" font-family="Segoe UI, Helvetica, Arial, sans-serif" font-size="13" fill="#3a352e" text-anchor="middle" font-weight="500">Enter</text>
<rect x="60.0" y="671.0" width="145.8" height="62.0" rx="7" fill="#5a6472" stroke="#5a6472" stroke-width="1.6"/>
<text x="132.9" y="707.0" font-family="Segoe UI, Helvetica, Arial, sans-serif" font-size="13" fill="#ffffff" text-anchor="middle" font-weight="700">Shift</text>
<rect x="210.8" y="671.0" width="62.0" height="62.0" rx="7" fill="#ffffff" stroke="#8b8378" stroke-width="1.6"/>
<text x="241.8" y="707.0" font-family="Segoe UI, Helvetica, Arial, sans-serif" font-size="15" fill="#3a352e" text-anchor="middle" font-weight="500">Z</text>
<rect x="277.8" y="671.0" width="62.0" height="62.0" rx="7" fill="#ffffff" stroke="#8b8378" stroke-width="1.6"/>
<text x="308.8" y="707.0" font-family="Segoe UI, Helvetica, Arial, sans-serif" font-size="15" fill="#3a352e" text-anchor="middle" font-weight="500">X</text>
<rect x="344.8" y="671.0" width="62.0" height="62.0" rx="7" fill="#ffffff" stroke="#8b8378" stroke-width="1.6"/>
<text x="375.8" y="707.0" font-family="Segoe UI, Helvetica, Arial, sans-serif" font-size="15" fill="#3a352e" text-anchor="middle" font-weight="500">C</text>
<rect x="411.8" y="671.0" width="62.0" height="62.0" rx="7" fill="#7b3fa0" stroke="#7b3fa0" stroke-width="1.6"/>
<text x="442.8" y="707.0" font-family="Segoe UI, Helvetica, Arial, sans-serif" font-size="15" fill="#ffffff" text-anchor="middle" font-weight="700">V</text>
<rect x="478.8" y="671.0" width="62.0" height="62.0" rx="7" fill="#ffffff" stroke="#8b8378" stroke-width="1.6"/>
<text x="509.8" y="707.0" font-family="Segoe UI, Helvetica, Arial, sans-serif" font-size="15" fill="#3a352e" text-anchor="middle" font-weight="500">B</text>
<rect x="545.8" y="671.0" width="62.0" height="62.0" rx="7" fill="#ffffff" stroke="#8b8378" stroke-width="1.6"/>
<text x="576.8" y="707.0" font-family="Segoe UI, Helvetica, Arial, sans-serif" font-size="15" fill="#3a352e" text-anchor="middle" font-weight="500">N</text>
<rect x="612.8" y="671.0" width="62.0" height="62.0" rx="7" fill="#ffffff" stroke="#8b8378" stroke-width="1.6"/>
<text x="643.8" y="707.0" font-family="Segoe UI, Helvetica, Arial, sans-serif" font-size="15" fill="#3a352e" text-anchor="middle" font-weight="500">M</text>
<rect x="679.8" y="671.0" width="62.0" height="62.0" rx="7" fill="#ffffff" stroke="#8b8378" stroke-width="1.6"/>
<text x="710.8" y="707.0" font-family="Segoe UI, Helvetica, Arial, sans-serif" font-size="15" fill="#3a352e" text-anchor="middle" font-weight="500">,</text>
<rect x="746.8" y="671.0" width="62.0" height="62.0" rx="7" fill="#ffffff" stroke="#8b8378" stroke-width="1.6"/>
<text x="777.8" y="707.0" font-family="Segoe UI, Helvetica, Arial, sans-serif" font-size="15" fill="#3a352e" text-anchor="middle" font-weight="500">.</text>
<rect x="813.8" y="671.0" width="62.0" height="62.0" rx="7" fill="#ffffff" stroke="#8b8378" stroke-width="1.6"/>
<text x="844.8" y="707.0" font-family="Segoe UI, Helvetica, Arial, sans-serif" font-size="15" fill="#3a352e" text-anchor="middle" font-weight="500">/</text>
<rect x="880.8" y="671.0" width="179.2" height="62.0" rx="7" fill="#ffffff" stroke="#8b8378" stroke-width="1.6"/>
<text x="970.4" y="707.0" font-family="Segoe UI, Helvetica, Arial, sans-serif" font-size="13" fill="#3a352e" text-anchor="middle" font-weight="500">Shift</text>
<rect x="60.0" y="738.0" width="78.8" height="62.0" rx="7" fill="#d2691e" stroke="#d2691e" stroke-width="1.6"/>
<text x="99.4" y="774.0" font-family="Segoe UI, Helvetica, Arial, sans-serif" font-size="13" fill="#ffffff" text-anchor="middle" font-weight="700">Ctrl</text>
<rect x="143.8" y="738.0" width="78.8" height="62.0" rx="7" fill="#ffffff" stroke="#8b8378" stroke-width="1.6"/>
<text x="183.1" y="774.0" font-family="Segoe UI, Helvetica, Arial, sans-serif" font-size="13" fill="#3a352e" text-anchor="middle" font-weight="500">Win</text>
<rect x="227.5" y="738.0" width="78.8" height="62.0" rx="7" fill="#b8860b" stroke="#b8860b" stroke-width="1.6"/>
<text x="266.9" y="774.0" font-family="Segoe UI, Helvetica, Arial, sans-serif" font-size="13" fill="#ffffff" text-anchor="middle" font-weight="700">Alt</text>
<rect x="311.2" y="738.0" width="413.8" height="62.0" rx="7" fill="#5a6472" stroke="#5a6472" stroke-width="1.6"/>
<text x="518.1" y="774.0" font-family="Segoe UI, Helvetica, Arial, sans-serif" font-size="13" fill="#ffffff" text-anchor="middle" font-weight="700">Space</text>
<rect x="730.0" y="738.0" width="78.8" height="62.0" rx="7" fill="#ffffff" stroke="#8b8378" stroke-width="1.6"/>
<text x="769.4" y="774.0" font-family="Segoe UI, Helvetica, Arial, sans-serif" font-size="13" fill="#3a352e" text-anchor="middle" font-weight="500">Alt</text>
<rect x="813.8" y="738.0" width="78.8" height="62.0" rx="7" fill="#ffffff" stroke="#8b8378" stroke-width="1.6"/>
<text x="853.1" y="774.0" font-family="Segoe UI, Helvetica, Arial, sans-serif" font-size="13" fill="#3a352e" text-anchor="middle" font-weight="500">Win</text>
<rect x="897.5" y="738.0" width="78.8" height="62.0" rx="7" fill="#ffffff" stroke="#8b8378" stroke-width="1.6"/>
<text x="936.9" y="774.0" font-family="Segoe UI, Helvetica, Arial, sans-serif" font-size="13" fill="#3a352e" text-anchor="middle" font-weight="500">Menu</text>
<rect x="981.2" y="738.0" width="78.8" height="62.0" rx="7" fill="#ffffff" stroke="#8b8378" stroke-width="1.6"/>
<text x="1020.6" y="774.0" font-family="Segoe UI, Helvetica, Arial, sans-serif" font-size="13" fill="#3a352e" text-anchor="middle" font-weight="500">Ctrl</text>
<rect x="1105.0" y="470.0" width="62.0" height="62.0" rx="7" fill="#ffffff" stroke="#8b8378" stroke-width="1.6"/>
<text x="1136.0" y="506.0" font-family="Segoe UI, Helvetica, Arial, sans-serif" font-size="14" fill="#3a352e" text-anchor="middle" font-weight="500">Num</text>
<rect x="1172.0" y="470.0" width="62.0" height="62.0" rx="7" fill="#ffffff" stroke="#8b8378" stroke-width="1.6"/>
<text x="1203.0" y="506.0" font-family="Segoe UI, Helvetica, Arial, sans-serif" font-size="14" fill="#3a352e" text-anchor="middle" font-weight="500">/</text>
<rect x="1239.0" y="470.0" width="62.0" height="62.0" rx="7" fill="#ffffff" stroke="#8b8378" stroke-width="1.6"/>
<text x="1270.0" y="506.0" font-family="Segoe UI, Helvetica, Arial, sans-serif" font-size="14" fill="#3a352e" text-anchor="middle" font-weight="500">*</text>
<rect x="1306.0" y="470.0" width="62.0" height="62.0" rx="7" fill="#ffffff" stroke="#8b8378" stroke-width="1.6"/>
<text x="1337.0" y="506.0" font-family="Segoe UI, Helvetica, Arial, sans-serif" font-size="14" fill="#3a352e" text-anchor="middle" font-weight="500">-</text>
<rect x="1105.0" y="537.0" width="62.0" height="62.0" rx="7" fill="#ffffff" stroke="#8b8378" stroke-width="1.6"/>
<text x="1136.0" y="573.0" font-family="Segoe UI, Helvetica, Arial, sans-serif" font-size="14" fill="#3a352e" text-anchor="middle" font-weight="500">7</text>
<rect x="1172.0" y="537.0" width="62.0" height="62.0" rx="7" fill="#d2691e" stroke="#d2691e" stroke-width="1.6"/>
<text x="1203.0" y="573.0" font-family="Segoe UI, Helvetica, Arial, sans-serif" font-size="14" fill="#ffffff" text-anchor="middle" font-weight="700">8</text>
<rect x="1239.0" y="537.0" width="62.0" height="62.0" rx="7" fill="#ffffff" stroke="#8b8378" stroke-width="1.6"/>
<text x="1270.0" y="573.0" font-family="Segoe UI, Helvetica, Arial, sans-serif" font-size="14" fill="#3a352e" text-anchor="middle" font-weight="500">9</text>
<rect x="1306.0" y="537.0" width="62.0" height="62.0" rx="7" fill="#ffffff" stroke="#8b8378" stroke-width="1.6"/>
<text x="1337.0" y="573.0" font-family="Segoe UI, Helvetica, Arial, sans-serif" font-size="14" fill="#3a352e" text-anchor="middle" font-weight="500">+</text>
<rect x="1105.0" y="604.0" width="62.0" height="62.0" rx="7" fill="#d2691e" stroke="#d2691e" stroke-width="1.6"/>
<text x="1136.0" y="640.0" font-family="Segoe UI, Helvetica, Arial, sans-serif" font-size="14" fill="#ffffff" text-anchor="middle" font-weight="700">4</text>
<rect x="1172.0" y="604.0" width="62.0" height="62.0" rx="7" fill="#d2691e" stroke="#d2691e" stroke-width="1.6"/>
<text x="1203.0" y="640.0" font-family="Segoe UI, Helvetica, Arial, sans-serif" font-size="14" fill="#ffffff" text-anchor="middle" font-weight="700">5</text>
<rect x="1239.0" y="604.0" width="62.0" height="62.0" rx="7" fill="#d2691e" stroke="#d2691e" stroke-width="1.6"/>
<text x="1270.0" y="640.0" font-family="Segoe UI, Helvetica, Arial, sans-serif" font-size="14" fill="#ffffff" text-anchor="middle" font-weight="700">6</text>
<rect x="1105.0" y="671.0" width="62.0" height="62.0" rx="7" fill="#d2691e" stroke="#d2691e" stroke-width="1.6"/>
<text x="1136.0" y="707.0" font-family="Segoe UI, Helvetica, Arial, sans-serif" font-size="14" fill="#ffffff" text-anchor="middle" font-weight="700">1</text>
<rect x="1172.0" y="671.0" width="62.0" height="62.0" rx="7" fill="#d2691e" stroke="#d2691e" stroke-width="1.6"/>
<text x="1203.0" y="707.0" font-family="Segoe UI, Helvetica, Arial, sans-serif" font-size="14" fill="#ffffff" text-anchor="middle" font-weight="700">2</text>
<rect x="1239.0" y="671.0" width="62.0" height="62.0" rx="7" fill="#ffffff" stroke="#8b8378" stroke-width="1.6"/>
<text x="1270.0" y="707.0" font-family="Segoe UI, Helvetica, Arial, sans-serif" font-size="14" fill="#3a352e" text-anchor="middle" font-weight="500">3</text>
<rect x="1306.0" y="671.0" width="62.0" height="62.0" rx="7" fill="#ffffff" stroke="#8b8378" stroke-width="1.6"/>
<text x="1337.0" y="707.0" font-family="Segoe UI, Helvetica, Arial, sans-serif" font-size="14" fill="#3a352e" text-anchor="middle" font-weight="500">Ent</text>
<rect x="1105.0" y="738.0" width="129.0" height="62.0" rx="7" fill="#ffffff" stroke="#8b8378" stroke-width="1.6"/>
<text x="1169.5" y="774.0" font-family="Segoe UI, Helvetica, Arial, sans-serif" font-size="14" fill="#3a352e" text-anchor="middle" font-weight="500">0</text>
<rect x="1239.0" y="738.0" width="62.0" height="62.0" rx="7" fill="#ffffff" stroke="#8b8378" stroke-width="1.6"/>
<text x="1270.0" y="774.0" font-family="Segoe UI, Helvetica, Arial, sans-serif" font-size="14" fill="#3a352e" text-anchor="middle" font-weight="500">.</text>
<text x="1215.0" y="454.0" font-family="Segoe UI, Helvetica, Arial, sans-serif" font-size="14" fill="#7a7166" text-anchor="middle" font-weight="600">Numpad</text>
<path d="M 91.0 415.0 L 91.0 470.0" stroke="#1f6f8b" stroke-width="2.4" fill="none" stroke-linecap="round"/>
<rect x="26.4" y="385.0" width="129.2" height="30.0" rx="6" fill="#1f6f8b"/>
<text x="91.0" y="405.5" font-family="Segoe UI, Helvetica, Arial, sans-serif" font-size="14" fill="#ffffff" text-anchor="middle" font-weight="600">Asset picker</text>
<path d="M 1042.2 265.0 L 1012.2 537.0" stroke="#7b3fa0" stroke-width="2.4" fill="none" stroke-linecap="round"/>
<rect x="964.8" y="235.0" width="155.0" height="30.0" rx="6" fill="#7b3fa0"/>
<text x="1042.2" y="255.5" font-family="Segoe UI, Helvetica, Arial, sans-serif" font-size="14" fill="#ffffff" text-anchor="middle" font-weight="600">Cycle edit mode</text>
<path d="M 895.5 331.0 L 861.5 537.0" stroke="#1f6f8b" stroke-width="2.4" fill="none" stroke-linecap="round"/>
<rect x="805.1" y="301.0" width="180.8" height="30.0" rx="6" fill="#1f6f8b"/>
<text x="895.5" y="321.5" font-family="Segoe UI, Helvetica, Arial, sans-serif" font-size="14" fill="#ffffff" text-anchor="middle" font-weight="600">Prev / next object</text>
<path d="M 225.5 415.0 L 191.5 537.0" stroke="#d2691e" stroke-width="2.4" fill="none" stroke-linecap="round"/>
<rect x="156.6" y="385.0" width="137.8" height="30.0" rx="6" fill="#d2691e"/>
<text x="225.5" y="405.5" font-family="Segoe UI, Helvetica, Arial, sans-serif" font-size="14" fill="#ffffff" text-anchor="middle" font-weight="600">Rotate object</text>
<path d="M 291.5 415.0 L 325.5 537.0" stroke="#d2691e" stroke-width="2.4" fill="none" stroke-linecap="round"/>
<path d="M 389.2 850.0 L 409.2 666.0" stroke="#2e7d4f" stroke-width="2.4" fill="none" stroke-linecap="round"/>
<rect x="307.4" y="850.0" width="163.6" height="30.0" rx="6" fill="#2e7d4f"/>
<text x="389.2" y="870.5" font-family="Segoe UI, Helvetica, Arial, sans-serif" font-size="14" fill="#ffffff" text-anchor="middle" font-weight="600">Place (keyboard)</text>
<path d="M 626.2 906.0 L 543.2 666.0" stroke="#d2691e" stroke-width="2.4" fill="none" stroke-linecap="round"/>
<rect x="475.6" y="906.0" width="301.2" height="30.0" rx="6" fill="#d2691e"/>
<text x="626.2" y="926.5" font-family="Segoe UI, Helvetica, Arial, sans-serif" font-size="14" fill="#ffffff" text-anchor="middle" font-weight="600">Drop to ground  /  ground follow</text>
<path d="M 707.2 850.0 L 677.2 666.0" stroke="#b8860b" stroke-width="2.4" fill="none" stroke-linecap="round"/>
<rect x="677.0" y="850.0" width="60.4" height="30.0" rx="6" fill="#b8860b"/>
<text x="707.2" y="870.5" font-family="Segoe UI, Helvetica, Arial, sans-serif" font-size="14" fill="#ffffff" text-anchor="middle" font-weight="600">Save</text>
<path d="M 235.2 962.0 L 266.9 800.0" stroke="#b8860b" stroke-width="2.4" fill="none" stroke-linecap="round"/>
<path d="M 235.2 962.0 L 275.2 666.0" stroke="#b8860b" stroke-width="2.4" fill="none" stroke-linecap="round"/>
<rect x="162.1" y="962.0" width="146.4" height="30.0" rx="6" fill="#b8860b"/>
<text x="235.2" y="982.5" font-family="Segoe UI, Helvetica, Arial, sans-serif" font-size="14" fill="#ffffff" text-anchor="middle" font-weight="600">Alt + S   save</text>
<path d="M 575.5 205.0 L 266.9 738.0" stroke="#b8860b" stroke-width="2.4" fill="none" stroke-linecap="round"/>
<path d="M 575.5 205.0 L 325.5 537.0" stroke="#b8860b" stroke-width="2.4" fill="none" stroke-linecap="round"/>
<rect x="493.7" y="175.0" width="163.6" height="30.0" rx="6" fill="#b8860b"/>
<text x="575.5" y="195.5" font-family="Segoe UI, Helvetica, Arial, sans-serif" font-size="14" fill="#ffffff" text-anchor="middle" font-weight="600">Alt + E   export</text>
<path d="M 1074.2 850.0 L 744.2 666.0" stroke="#7b3fa0" stroke-width="2.4" fill="none" stroke-linecap="round"/>
<rect x="979.5" y="850.0" width="189.4" height="30.0" rx="6" fill="#7b3fa0"/>
<text x="1074.2" y="870.5" font-family="Segoe UI, Helvetica, Arial, sans-serif" font-size="14" fill="#ffffff" text-anchor="middle" font-weight="600">Scene contents list</text>
<path d="M 382.8 962.0 L 442.8 733.0" stroke="#7b3fa0" stroke-width="2.4" fill="none" stroke-linecap="round"/>
<rect x="318.1" y="962.0" width="129.2" height="30.0" rx="6" fill="#7b3fa0"/>
<text x="382.8" y="982.5" font-family="Segoe UI, Helvetica, Arial, sans-serif" font-size="14" fill="#ffffff" text-anchor="middle" font-weight="600">Cycle camera</text>
<path d="M 159.4 1018.0 L 99.4 800.0" stroke="#d2691e" stroke-width="2.4" fill="none" stroke-linecap="round"/>
<rect x="38.9" y="1018.0" width="241.0" height="30.0" rx="6" fill="#d2691e"/>
<text x="159.4" y="1038.5" font-family="Segoe UI, Helvetica, Arial, sans-serif" font-size="14" fill="#ffffff" text-anchor="middle" font-weight="600">Reset rotation and height</text>
<path d="M 1235.0 265.0 L 1203.0 537.0" stroke="#d2691e" stroke-width="2.4" fill="none" stroke-linecap="round"/>
<rect x="1118.8" y="235.0" width="232.4" height="30.0" rx="6" fill="#d2691e"/>
<text x="1235.0" y="255.5" font-family="Segoe UI, Helvetica, Arial, sans-serif" font-size="14" fill="#ffffff" text-anchor="middle" font-weight="600">Tilt, roll, raise, lower</text>
<path d="M 318.5 205.0 L 258.5 537.0" stroke="#5a6472" stroke-width="2.4" fill="none" stroke-linecap="round"/>
<rect x="185.1" y="175.0" width="266.8" height="30.0" rx="6" fill="#5a6472"/>
<text x="318.5" y="195.5" font-family="Segoe UI, Helvetica, Arial, sans-serif" font-size="14" fill="#ffffff" text-anchor="middle" font-weight="600">Move / pan camera  (W A S D)</text>
<path d="M 1285.0 140 C 1370.5 140 1380 230.0 1380 305.0 C 1380 410.0 1342.0 440 1285.0 440 C 1228.0 440 1190 410.0 1190 305.0 C 1190 230.0 1199.5 140 1285.0 140 Z" fill="#ffffff" stroke="#8b8378" stroke-width="3"/>
<path d="M 1196.0 260.0 L 1374.0 260.0" stroke="#8b8378" stroke-width="2" fill="none" stroke-linecap="round"/>
<rect x="1212.0" y="158.0" width="52.0" height="92.0" rx="18" fill="#2e7d4f"/>
<rect x="1306.0" y="158.0" width="52.0" height="92.0" rx="18" fill="#d2691e"/>
<rect x="1270.0" y="154.0" width="30.0" height="74.0" rx="15" fill="#d2691e"/>
<path d="M 1040.0 215.0 L 1220.0 202.0" stroke="#2e7d4f" stroke-width="2.4" fill="none" stroke-linecap="round"/>
<rect x="979.7" y="185.0" width="120.6" height="30.0" rx="6" fill="#2e7d4f"/>
<text x="1040.0" y="205.5" font-family="Segoe UI, Helvetica, Arial, sans-serif" font-size="14" fill="#ffffff" text-anchor="middle" font-weight="600">Place / act</text>
<path d="M 1510.0 215.0 L 1350.0 202.0" stroke="#d2691e" stroke-width="2.4" fill="none" stroke-linecap="round"/>
<rect x="1415.3" y="185.0" width="189.4" height="30.0" rx="6" fill="#d2691e"/>
<text x="1510.0" y="205.5" font-family="Segoe UI, Helvetica, Arial, sans-serif" font-size="14" fill="#ffffff" text-anchor="middle" font-weight="600">Hold: tilt and roll</text>
<path d="M 1518.0 145.0 L 1285.0 166.0" stroke="#d2691e" stroke-width="2.4" fill="none" stroke-linecap="round"/>
<rect x="1419.0" y="115.0" width="198.0" height="30.0" rx="6" fill="#d2691e"/>
<text x="1518.0" y="135.5" font-family="Segoe UI, Helvetica, Arial, sans-serif" font-size="14" fill="#ffffff" text-anchor="middle" font-weight="600">Wheel: raise / lower</text>
<text x="1285.0" y="480.0" font-family="Segoe UI, Helvetica, Arial, sans-serif" font-size="14" fill="#7a7166" text-anchor="middle" font-weight="600">Left click does whatever the mode says:</text>
<text x="1285.0" y="502.0" font-family="Segoe UI, Helvetica, Arial, sans-serif" font-size="14" fill="#7a7166" text-anchor="middle" font-weight="normal">place · delete · pick up · open scripts</text>
<text x="1425.0" y="529.0" font-family="Segoe UI, Helvetica, Arial, sans-serif" font-size="13" fill="#7a7166" text-anchor="start" font-weight="700">COLOUR KEY</text>
<rect x="1425.0" y="545.0" width="22.0" height="22.0" rx="5" fill="#7b3fa0"/>
<text x="1457.0" y="561.0" font-family="Segoe UI, Helvetica, Arial, sans-serif" font-size="15" fill="#1b1815" text-anchor="start" font-weight="normal">Modes and panels</text>
<rect x="1425.0" y="574.0" width="22.0" height="22.0" rx="5" fill="#2e7d4f"/>
<text x="1457.0" y="590.0" font-family="Segoe UI, Helvetica, Arial, sans-serif" font-size="15" fill="#1b1815" text-anchor="start" font-weight="normal">Place and select</text>
<rect x="1425.0" y="603.0" width="22.0" height="22.0" rx="5" fill="#d2691e"/>
<text x="1457.0" y="619.0" font-family="Segoe UI, Helvetica, Arial, sans-serif" font-size="15" fill="#1b1815" text-anchor="start" font-weight="normal">Position and rotate</text>
<rect x="1425.0" y="632.0" width="22.0" height="22.0" rx="5" fill="#1f6f8b"/>
<text x="1457.0" y="648.0" font-family="Segoe UI, Helvetica, Arial, sans-serif" font-size="15" fill="#1b1815" text-anchor="start" font-weight="normal">Choose what to build</text>
<rect x="1425.0" y="661.0" width="22.0" height="22.0" rx="5" fill="#b8860b"/>
<text x="1457.0" y="677.0" font-family="Segoe UI, Helvetica, Arial, sans-serif" font-size="15" fill="#1b1815" text-anchor="start" font-weight="normal">Save and export</text>
<rect x="1425.0" y="690.0" width="22.0" height="22.0" rx="5" fill="#5a6472"/>
<text x="1457.0" y="706.0" font-family="Segoe UI, Helvetica, Arial, sans-serif" font-size="15" fill="#1b1815" text-anchor="start" font-weight="normal">Camera and movement</text>
<text x="1425.0" y="753.0" font-family="Segoe UI, Helvetica, Arial, sans-serif" font-size="13" fill="#7a7166" text-anchor="start" font-weight="700">OVERHEAD (RTS) CAMERA</text>
<text x="1425.0" y="783.0" font-family="Segoe UI, Helvetica, Arial, sans-serif" font-size="14" fill="#1b1815" text-anchor="start" font-weight="normal">WASD  pan  ·  speed scales with height</text>
<text x="1425.0" y="808.0" font-family="Segoe UI, Helvetica, Arial, sans-serif" font-size="14" fill="#1b1815" text-anchor="start" font-weight="normal">Space / Left Alt  raise and lower</text>
<text x="1425.0" y="833.0" font-family="Segoe UI, Helvetica, Arial, sans-serif" font-size="14" fill="#1b1815" text-anchor="start" font-weight="normal">Hold Shift + drag  rotate the view</text>
<text x="1425.0" y="858.0" font-family="Segoe UI, Helvetica, Arial, sans-serif" font-size="14" fill="#1b1815" text-anchor="start" font-weight="normal">Shift + WASD  fly along the view</text>
<text x="1425.0" y="911.0" font-family="Segoe UI, Helvetica, Arial, sans-serif" font-size="13" fill="#7a7166" text-anchor="start" font-weight="700">GOOD TO KNOW</text>
<text x="1425.0" y="941.0" font-family="Segoe UI, Helvetica, Arial, sans-serif" font-size="14" fill="#1b1815" text-anchor="start" font-weight="normal">Hold Tab to leave.  No placement range limit.</text>
<text x="1425.0" y="966.0" font-family="Segoe UI, Helvetica, Arial, sans-serif" font-size="14" fill="#1b1815" text-anchor="start" font-weight="normal">Weapons sheathe and the mouse stops reaching</text>
<text x="1425.0" y="991.0" font-family="Segoe UI, Helvetica, Arial, sans-serif" font-size="14" fill="#1b1815" text-anchor="start" font-weight="normal">combat while an edit mode is on.</text>
<text x="1425.0" y="1016.0" font-family="Segoe UI, Helvetica, Arial, sans-serif" font-size="14" fill="#1b1815" text-anchor="start" font-weight="normal">Unsaved work is flagged in the top right.</text>
<text x="880.0" y="1112.0" font-family="Segoe UI, Helvetica, Arial, sans-serif" font-size="16" fill="#1b1815" text-anchor="middle" font-weight="600">Edit modes cycle with  \  :  Off → Build → Delete → Move → Script</text>
</svg>
